<?xml version="1.0" standalone="no"?>
<!DOCTYPE svg PUBLIC "-//W3C//DTD SVG 20010904//EN"
 "http://www.w3.org/TR/2001/REC-SVG-20010904/DTD/svg10.dtd">
<svg version="1.0" xmlns="http://www.w3.org/2000/svg"
 width="720.000000pt" height="720.000000pt" viewBox="0 0 720.000000 720.000000"
 preserveAspectRatio="xMidYMid meet">
<metadata>
Created by potrace 1.16, written by Peter Selinger 2001-2019
</metadata>
<g transform="translate(0.000000,720.000000) scale(0.100000,-0.100000)"
fill="#000000" stroke="none">
<path d="M3390 6594 c-980 -88 -1832 -632 -2317 -1481 -412 -719 -496 -1611
-226 -2403 232 -683 721 -1267 1359 -1623 687 -383 1526 -470 2294 -236 715
217 1340 728 1709 1396 390 704 468 1572 210 2346 -287 864 -964 1549 -1829
1848 -150 53 -362 104 -530 130 -102 15 -196 21 -380 24 -135 1 -265 1 -290
-1z m450 -184 c688 -59 1290 -342 1765 -831 430 -443 688 -986 766 -1614 16
-128 16 -480 0 -610 -66 -527 -262 -1002 -583 -1408 -92 -116 -306 -333 -418
-423 -309 -250 -664 -429 -1042 -529 -850 -222 -1748 -28 -2438 529 -112 90
-326 307 -418 423 -321 406 -517 881 -583 1408 -16 130 -16 482 0 610 34 277
122 596 230 833 275 609 797 1124 1403 1387 425 184 884 262 1318 225z"/>
<path d="M3590 6211 c-70 -15 -131 -62 -163 -126 -8 -16 -234 -534 -502 -1150
-269 -616 -492 -1126 -498 -1132 -7 -10 -69 -13 -247 -13 l-237 0 -11 24 c-18
39 -72 95 -119 123 -59 34 -168 43 -240 19 -188 -62 -254 -310 -122 -460 62
-70 126 -99 219 -100 93 0 155 29 223 104 l45 50 447 -2 446 -3 369 -710 c204
-390 378 -716 387 -722 9 -7 27 -13 40 -13 65 0 60 -10 422 739 l344 711 476
0 476 -1 28 -40 c121 -176 407 -144 498 56 28 60 25 176 -5 240 -84 182 -329
224 -468 81 -20 -20 -41 -50 -48 -66 l-12 -30 -243 0 c-218 0 -243 2 -257 18
-8 9 -17 24 -20 32 -3 8 -223 523 -488 1143 -510 1192 -499 1171 -581 1209
-43 20 -113 29 -159 19z m91 -411 c19 -6 46 -21 59 -35 14 -15 207 -448 445
-998 l421 -972 -477 -3 c-263 -1 -695 -1 -962 0 l-484 3 418 965 c229 531 427
978 440 994 21 26 69 55 94 56 6 0 26 -5 46 -10z m569 -2262 c-1 -7 -128 -285
-284 -618 -302 -647 -303 -648 -359 -623 -21 10 -88 135 -334 625 -169 337
-309 616 -311 621 -2 4 287 7 642 7 510 0 646 -3 646 -12z"/>
<path d="M3077 6084 c-321 -68 -592 -182 -857 -359 -164 -109 -242 -173 -373
-302 -395 -388 -633 -865 -719 -1438 -20 -137 -17 -540 5 -683 115 -728 520
-1349 1133 -1737 266 -169 656 -314 942 -351 l52 -7 0 32 c0 26 -4 31 -25 31
-54 0 -278 54 -420 101 -752 250 -1350 880 -1560 1645 -58 212 -77 344 -82
589 -4 170 -1 249 11 345 72 547 305 1027 681 1406 211 212 391 342 660 475
206 101 392 163 653 215 15 3 22 11 22 29 0 13 -3 26 -7 28 -5 2 -56 -6 -116
-19z"/>
<path d="M4085 6102 c-3 -3 -5 -16 -5 -28 0 -16 7 -25 23 -28 282 -60 441
-112 652 -215 589 -289 1030 -793 1235 -1412 90 -273 125 -518 117 -824 -10
-372 -85 -678 -248 -1005 -122 -244 -254 -431 -440 -620 -338 -344 -761 -576
-1227 -674 -67 -14 -133 -26 -147 -26 -21 0 -25 -5 -25 -30 0 -37 3 -37 146
-9 984 190 1756 956 1954 1939 124 614 11 1255 -313 1782 -317 517 -841 921
-1404 1083 -116 33 -310 74 -318 67z"/>
<path d="M2273 3323 c753 -1296 1274 -2183 1293 -2200 35 -32 113 -32 148 0
20 17 1206 2184 1206 2203 0 2 -46 4 -102 4 l-103 0 -489 -903 c-288 -533
-499 -911 -515 -924 -30 -27 -88 -30 -129 -9 -20 11 -158 238 -561 925 l-533
911 -110 0 c-60 0 -107 -3 -105 -7z"/>
</g>
</svg>
